<?xml version="1.0" encoding="UTF-8"?>
<svg version="1.1" xmlns="http://www.w3.org/2000/svg" width="512" height="512">
<path d="M0 0 C0.84175781 0.71542969 1.68351563 1.43085937 2.55078125 2.16796875 C3.79794922 3.22564453 3.79794922 3.22564453 5.0703125 4.3046875 C7.61854085 6.53990512 10.09099043 8.83586172 12.55078125 11.16796875 C13.50855469 12.06128906 14.46632813 12.95460937 15.453125 13.875 C42.30595191 39.40605564 57.58737122 76.14812978 58.75390625 113.03515625 C59.21572426 142.89346669 51.02838378 169.33492993 38.14874268 196.01403809 C36.54692513 199.3322512 34.96016188 202.65759703 33.37225342 205.98248291 C32.56965469 207.66264904 31.76631515 209.3424615 30.96221924 211.02191162 C26.95023544 219.40471167 23.00392785 227.8172112 19.14501953 236.27172852 C16.79265349 241.41510813 14.40086758 246.51665779 11.80566406 251.54299927 C10.88793471 253.32642643 9.98946567 255.11972221 9.09130859 256.91308594 C7.97048315 259.14586904 6.81749697 261.36290516 5.62744141 263.55957031 C4.17573619 266.49902439 3.06280145 268.92790022 2.55078125 272.16796875 C3.92128694 275.74211325 6.0947528 278.27555832 8.55078125 281.16796875 C11.85629696 288.57758043 12.3484913 296.28327555 10.55078125 304.16796875 C9.32739579 306.88744479 7.99889982 309.38942946 6.4140625 311.9140625 C5.27688388 314.20241965 5.27688388 314.20241965 6.30859375 316.76171875 C6.71851563 317.55578125 7.1284375 318.34984375 7.55078125 319.16796875 C11.21934784 326.35835927 12.62878431 334.42591472 10.86328125 342.41796875 C7.45532825 352.15497734 3.06350306 358.36732366 -6.21484375 363.35546875 C-12.98484689 366.2603801 -20.29769306 365.59253483 -27.51171875 365.41796875 C-28.96416798 365.39786565 -30.41664419 365.37962163 -31.86914062 365.36328125 C-35.39640209 365.31960381 -38.92263374 365.25078982 -42.44921875 365.16796875 C-42.59617187 366.27100342 -42.743125 367.37403809 -42.89453125 368.51049805 C-44.65468587 380.1165176 -53.1771348 389.19301718 -62.26171875 396.04296875 C-74.07483978 403.67190035 -87.82004053 405.33389985 -101.57275391 402.77246094 C-114.51081231 399.55326815 -125.07231428 390.8804219 -132.0234375 379.6171875 C-134.61361373 374.72628167 -135.71811207 370.6792644 -136.44921875 365.16796875 C-137.34116943 365.18891602 -138.23312012 365.20986328 -139.15209961 365.23144531 C-142.50132843 365.30012961 -145.84979543 365.35001202 -149.19946289 365.38769531 C-150.64164127 365.40765626 -152.08374035 365.43483538 -153.52563477 365.46972656 C-165.18353395 365.74450547 -173.86433615 364.46857694 -182.65625 356.203125 C-188.83110694 349.19419152 -190.67287283 341.36263633 -190.44921875 332.16796875 C-189.9525677 327.32185847 -188.80909717 323.53184491 -186.19921875 319.41796875 C-184.1116945 316.39213028 -184.1116945 316.39213028 -185.01171875 313.66796875 C-185.48609375 312.84296875 -185.96046875 312.01796875 -186.44921875 311.16796875 C-190.11778534 303.97757823 -191.52722181 295.91002278 -189.76171875 287.91796875 C-187.70765325 282.04921019 -185.20755834 277.11413083 -181.44921875 272.16796875 C-181.86582764 271.28463867 -182.28243652 270.40130859 -182.71166992 269.49121094 C-190.85904002 252.21283776 -199.00408632 234.93354672 -207.01171875 217.58984375 C-209.21664421 212.81513017 -211.4424294 208.05103219 -213.68443298 203.29362488 C-215.21665593 200.03699727 -216.73886272 196.77573728 -218.25979614 193.51382446 C-218.9942883 191.94413513 -219.73276638 190.37630284 -220.47579956 188.81063843 C-238.54533735 150.7081029 -243.2049929 109.33623036 -229.47558594 68.92724609 C-224.52802674 55.62626749 -218.07086664 42.47733683 -209.44921875 31.16796875 C-208.81242187 30.31203125 -208.175625 29.45609375 -207.51953125 28.57421875 C-184.10892692 -1.46202832 -150.76200946 -22.50869434 -112.81640625 -28.171875 C-73.25515165 -32.92972741 -31.70820729 -25.33965646 0 0 Z M-182.24487305 31.52661133 C-192.78883683 42.46222049 -200.27704826 55.36985208 -206.44921875 69.16796875 C-207.17238281 70.78251953 -207.17238281 70.78251953 -207.91015625 72.4296875 C-220.09045403 101.84695214 -219.23688122 135.49416689 -207.78857422 164.94189453 C-203.44038929 175.41526597 -198.42740159 185.60697283 -193.50120544 195.81713867 C-190.24575098 202.56830848 -187.0886774 209.36201792 -183.94921875 216.16796875 C-179.25644068 226.29966319 -174.53701602 236.41868279 -169.79223633 246.52612305 C-169.06670382 248.07231596 -168.34192488 249.61886271 -167.61791992 251.16577148 C-166.61069059 253.31725068 -165.60066448 255.46739379 -164.58984375 257.6171875 C-164.28632996 258.26676926 -163.98281616 258.91635101 -163.67010498 259.58561707 C-162.37776275 262.58513084 -162.37776275 262.58513084 -160.44921875 265.16796875 C-148.23921875 265.16796875 -136.02921875 265.16796875 -123.44921875 265.16796875 C-123.44921875 237.44796875 -123.44921875 209.72796875 -123.44921875 181.16796875 C-130.70921875 180.83796875 -137.96921875 180.50796875 -145.44921875 180.16796875 C-156.30660949 175.82501245 -163.32511065 171.79354174 -168.44921875 161.16796875 C-171.77269303 152.89439017 -171.93039229 142.08052566 -168.88671875 133.66796875 C-164.62807327 124.77711239 -157.76620477 118.70548506 -148.6875 115.05859375 C-140.13084928 112.70525676 -129.65824737 112.99589202 -121.625 116.84375 C-112.99166102 122.098152 -107.02253599 129.32946704 -104.44921875 139.16796875 C-104.07598053 142.95600924 -103.94243035 146.73946837 -103.82421875 150.54296875 C-103.70046875 154.04921875 -103.57671875 157.55546875 -103.44921875 161.16796875 C-94.20921875 161.16796875 -84.96921875 161.16796875 -75.44921875 161.16796875 C-75.27955905 154.37857843 -75.27955905 154.37857843 -75.15136719 147.58837891 C-74.8086077 137.86663742 -72.09021832 130.03971882 -65.375 122.921875 C-57.09249114 115.37857586 -48.36944134 113.57745867 -37.43359375 113.859375 C-28.28656818 114.5678211 -21.58693678 118.42878169 -15.44921875 125.16796875 C-8.3803745 134.46718624 -7.57328281 143.85841606 -8.44921875 155.16796875 C-10.40895908 164.13348738 -15.90769572 171.0560091 -23.51171875 176.04296875 C-33.65774577 182.17777578 -43.01614049 180.60282883 -55.44921875 181.16796875 C-55.44921875 208.88796875 -55.44921875 236.60796875 -55.44921875 265.16796875 C-42.90921875 265.16796875 -30.36921875 265.16796875 -17.44921875 265.16796875 C-15.59296875 261.16671875 -13.73671875 257.16546875 -11.82421875 253.04296875 C-7.35096395 243.40546394 -2.86971438 233.77173798 1.62442017 224.14395142 C2.49373302 222.28128732 3.36250714 220.41837269 4.23120117 218.55541992 C6.93161722 212.76612967 9.63727969 206.97944134 12.3598175 201.20051575 C31.94263218 159.63192924 46.10183825 120.81753307 30.33691406 75.28271484 C26.17550722 64.08827196 20.63611524 53.78777991 13.55078125 44.16796875 C12.66519531 42.94787109 12.66519531 42.94787109 11.76171875 41.703125 C-8.35047639 15.30051989 -38.41532469 -3.00412298 -71.43994141 -7.578125 C-113.4704284 -12.88938946 -152.55443047 1.82809521 -182.24487305 31.52661133 Z M-149.44921875 140.16796875 C-151.33322793 143.93598712 -151.08560663 148.07428133 -150.44921875 152.16796875 C-148.33209386 156.31904577 -145.61544722 158.60915094 -141.44921875 160.60546875 C-135.61126095 161.83660271 -129.37680699 161.31595292 -123.44921875 161.16796875 C-122.5497125 149.17722828 -122.5497125 149.17722828 -126.7890625 138.421875 C-130.03613319 135.11368298 -132.80242618 133.72256034 -137.44921875 133.41796875 C-142.85910428 133.7318247 -146.01371416 136.11260247 -149.44921875 140.16796875 Z M-53.44921875 140.16796875 C-56.56721252 146.67508619 -55.62575269 154.0968037 -55.44921875 161.16796875 C-43.45847828 162.067475 -43.45847828 162.067475 -32.703125 157.828125 C-29.39493298 154.58105431 -28.00381034 151.81476132 -27.69921875 147.16796875 C-27.97674091 142.38436317 -29.65190253 139.82221849 -32.94140625 136.4453125 C-36.29767096 133.60205198 -39.58450066 133.71249806 -43.8359375 133.76171875 C-48.25640206 134.44890607 -50.77602433 136.68424308 -53.44921875 140.16796875 Z M-103.44921875 181.16796875 C-103.44921875 208.88796875 -103.44921875 236.60796875 -103.44921875 265.16796875 C-94.20921875 265.16796875 -84.96921875 265.16796875 -75.44921875 265.16796875 C-75.44921875 237.44796875 -75.44921875 209.72796875 -75.44921875 181.16796875 C-84.68921875 181.16796875 -93.92921875 181.16796875 -103.44921875 181.16796875 Z M-166.44921875 288.16796875 C-168.69118027 290.81849887 -168.69118027 290.81849887 -169.44921875 294.16796875 C-168.86709499 297.98411342 -168.32706119 300.29012631 -165.57421875 303.04296875 C-161.34435544 305.28230815 -157.34547301 305.3311157 -152.6015625 305.44921875 C-151.94845596 305.46762817 -151.29534943 305.4860376 -150.62245178 305.50500488 C-147.83952488 305.58334741 -145.05636998 305.65141505 -142.27319336 305.72021484 C-140.23669882 305.77203646 -138.20040382 305.82923522 -136.1640625 305.88671875 C-134.948396 305.91701172 -133.73272949 305.94730469 -132.48022461 305.97851562 C-129.44921875 306.16796875 -129.44921875 306.16796875 -126.44921875 307.16796875 C-125.46646287 310.11623638 -125.3150715 312.09449379 -125.32421875 315.16796875 C-125.32035156 316.46734375 -125.32035156 316.46734375 -125.31640625 317.79296875 C-125.44921875 320.16796875 -125.44921875 320.16796875 -126.44921875 323.16796875 C-129.83166956 324.29545235 -132.49359021 324.32657857 -136.05859375 324.37890625 C-137.37085938 324.40726562 -138.683125 324.435625 -140.03515625 324.46484375 C-142.11295023 324.50594942 -144.19052003 324.54285791 -146.26855469 324.56933594 C-148.28211964 324.59718209 -150.29539129 324.64412948 -152.30859375 324.69140625 C-154.11021973 324.72113525 -154.11021973 324.72113525 -155.94824219 324.75146484 C-160.0914919 325.24437865 -162.74719003 326.2578855 -166.44921875 328.16796875 C-168.69118027 330.81849887 -168.69118027 330.81849887 -169.44921875 334.16796875 C-168.86709499 337.98411342 -168.32706119 340.29012631 -165.57421875 343.04296875 C-161.64739363 345.12187617 -158.10570073 345.29555853 -153.70036316 345.30841064 C-152.52699905 345.31412079 -151.35363495 345.31983093 -150.14471436 345.32571411 C-148.86098938 345.32683197 -147.5772644 345.32794983 -146.25463867 345.32910156 C-144.88611213 345.333732 -143.51758687 345.33875697 -142.14906311 345.34414673 C-138.43407289 345.35725074 -134.71910073 345.36371175 -131.00409102 345.36815739 C-128.68165772 345.37109126 -126.35922931 345.37519666 -124.03679848 345.37966156 C-116.76619178 345.39333105 -109.49559633 345.40300046 -102.22497767 345.40686345 C-93.83993167 345.41134339 -85.45504875 345.42889056 -77.07005233 345.45786405 C-70.58328837 345.47949828 -64.09657024 345.48956866 -57.6097706 345.49090457 C-53.737949 345.49195133 -49.86628082 345.4978315 -45.9944973 345.51572418 C-42.35091719 345.53223517 -38.70760533 345.53434585 -35.06400108 345.52558517 C-33.09608379 345.52445101 -31.12817528 345.53814485 -29.16030884 345.55233765 C-22.86000634 345.52264849 -17.93415479 345.42264091 -12.44921875 342.16796875 C-10.20725723 339.51743863 -10.20725723 339.51743863 -9.44921875 336.16796875 C-10.03134251 332.35182408 -10.57137631 330.04581119 -13.32421875 327.29296875 C-17.55408206 325.05362935 -21.55296449 325.0048218 -26.296875 324.88671875 C-27.27653481 324.85910461 -27.27653481 324.85910461 -28.27598572 324.83093262 C-31.05891262 324.75259009 -33.84206752 324.68452245 -36.62524414 324.61572266 C-38.66173868 324.56390104 -40.69803368 324.50670228 -42.734375 324.44921875 C-43.9500415 324.41892578 -45.16570801 324.38863281 -46.41821289 324.35742188 C-49.44921875 324.16796875 -49.44921875 324.16796875 -52.44921875 323.16796875 C-53.43197463 320.21970112 -53.583366 318.24144371 -53.57421875 315.16796875 C-53.57808594 313.86859375 -53.57808594 313.86859375 -53.58203125 312.54296875 C-53.44921875 310.16796875 -53.44921875 310.16796875 -52.44921875 307.16796875 C-49.06676794 306.04048515 -46.40484729 306.00935893 -42.83984375 305.95703125 C-41.52757812 305.92867188 -40.2153125 305.9003125 -38.86328125 305.87109375 C-36.78548727 305.82998808 -34.70791747 305.79307959 -32.62988281 305.76660156 C-30.61631786 305.73875541 -28.60304621 305.69180802 -26.58984375 305.64453125 C-25.38875977 305.62471191 -24.18767578 305.60489258 -22.95019531 305.58447266 C-18.8069456 305.09155885 -16.15124747 304.078052 -12.44921875 302.16796875 C-10.20725723 299.51743863 -10.20725723 299.51743863 -9.44921875 296.16796875 C-10.03134251 292.35182408 -10.57137631 290.04581119 -13.32421875 287.29296875 C-17.25104387 285.21406133 -20.79273677 285.04037897 -25.19807434 285.02752686 C-26.37143845 285.02181671 -27.54480255 285.01610657 -28.75372314 285.01022339 C-30.03744812 285.00910553 -31.3211731 285.00798767 -32.64379883 285.00683594 C-34.01232537 285.0022055 -35.38085063 284.99718053 -36.74937439 284.99179077 C-40.46436461 284.97868676 -44.17933677 284.97222575 -47.89434648 284.96778011 C-50.21677978 284.96484624 -52.53920819 284.96074084 -54.86163902 284.95627594 C-62.13224572 284.94260645 -69.40284117 284.93293704 -76.67345983 284.92907405 C-85.05850583 284.92459411 -93.44338875 284.90704694 -101.82838517 284.87807345 C-108.31514913 284.85643922 -114.80186726 284.84636884 -121.2886669 284.84503293 C-125.1604885 284.84398617 -129.03215668 284.838106 -132.9039402 284.82021332 C-136.54752031 284.80370233 -140.19083217 284.80159165 -143.83443642 284.81035233 C-145.80235371 284.81148649 -147.77026222 284.79779265 -149.73812866 284.78359985 C-156.03843116 284.81328901 -160.96428271 284.91329659 -166.44921875 288.16796875 Z M-114.44921875 365.16796875 C-111.74498033 371.92856479 -107.96440338 377.21959304 -101.38671875 380.66796875 C-94.45436581 383.30604845 -86.66187632 383.41001589 -79.57421875 381.3203125 C-73.61140117 378.63886252 -69.01998917 374.66062172 -65.44921875 369.16796875 C-65.11921875 367.84796875 -64.78921875 366.52796875 -64.44921875 365.16796875 C-80.94921875 365.16796875 -97.44921875 365.16796875 -114.44921875 365.16796875 Z " fill="#000000" transform="translate(345.44921875,108.83203125)"/>
<path d="M0 0 C2.96922861 1.79349379 5.42452071 3.84904142 7 7 C7.56258821 12.85091736 6.47151444 15.35603947 3 20 C1.01913273 22.22737811 -1.07056377 24.32821963 -3.19140625 26.421875 C-3.77792465 27.00793518 -4.36444305 27.59399536 -4.96873474 28.19781494 C-6.20098785 29.42706413 -7.43565319 30.65389949 -8.67260742 31.87841797 C-10.56556007 33.75303042 -12.4503043 35.63560607 -14.33398438 37.51953125 C-15.5359862 38.71662009 -16.73844439 39.91325091 -17.94140625 41.109375 C-18.50396622 41.67082214 -19.06652618 42.23226929 -19.64613342 42.81072998 C-26.20141138 49.2867135 -26.20141138 49.2867135 -31.375 49.375 C-34.85589619 49.30696946 -35.93022866 49.04360709 -39 47.125 C-41.99058105 43.94750763 -42.48690351 41.57394531 -42.38818359 37.17993164 C-40.92911095 28.98618342 -31.27708688 21.97153465 -25.56811523 16.30737305 C-23.93038491 14.68043178 -22.30370598 13.04298093 -20.67773438 11.40429688 C-19.62824536 10.35612844 -18.57813666 9.30858002 -17.52734375 8.26171875 C-17.0470018 7.77732834 -16.56665985 7.29293793 -16.07176208 6.79386902 C-11.06337987 1.85401455 -7.2286744 -1.01455079 0 0 Z " fill="#000000" transform="translate(420,66)"/>
<path d="M0 0 C7.19673822 3.9522476 12.95631333 10.65019029 18.69262695 16.43188477 C20.31956822 18.06961509 21.95701907 19.69629402 23.59570312 21.32226562 C24.64387156 22.37175464 25.69141998 23.42186334 26.73828125 24.47265625 C27.22267166 24.9529982 27.70706207 25.43334015 28.20613098 25.92823792 C31.93731453 29.71118202 35.42633481 33.4620682 35.4375 39 C35.29182657 43.05585501 33.93734866 45.14904395 31 48 C27.31974827 49.84012587 23.9921135 49.85130276 20 49 C17.72851562 47.36791992 17.72851562 47.36791992 15.40625 45.16796875 C14.53742188 44.35070312 13.66859375 43.5334375 12.7734375 42.69140625 C11.85820313 41.80324219 10.94296875 40.91507813 10 40 C9.06414062 39.09636719 8.12828125 38.19273438 7.1640625 37.26171875 C4.74208798 34.90736385 2.34423856 32.52994553 -0.04394531 30.14135742 C-1.5213253 28.66620688 -3.00660228 27.19930368 -4.4921875 25.73242188 C-5.44319499 24.78434207 -6.39373398 23.83579204 -7.34375 22.88671875 C-8.19130859 22.04326904 -9.03886719 21.19981934 -9.91210938 20.33081055 C-12.8350764 17.06776492 -13.87480066 14.9658235 -14.4375 10.625 C-13.85694294 5.8146701 -12.38607407 4.38607407 -9 1 C-5.78509882 -0.60745059 -3.5698929 -0.40305242 0 0 Z " fill="#000000" transform="translate(99,66)"/>
<path d="M0 0 C1.70483398 1.12524414 1.70483398 1.12524414 3.43359375 2.72265625 C4.12517578 3.35896973 4.81675781 3.9952832 5.52929688 4.65087891 C6.34462891 5.42608887 7.15996094 6.20129883 8 7 C8.48710449 7.45824158 8.97420898 7.91648315 9.47607422 8.38861084 C12.9077739 11.62000497 16.29517489 14.89302343 19.65698242 18.19702148 C20.84952958 19.36275145 22.04918163 20.52125472 23.25561523 21.67260742 C25.01966092 23.3574345 26.75952017 25.06426816 28.49609375 26.77734375 C29.03455429 27.28281235 29.57301483 27.78828094 30.12779236 28.30906677 C34.24769293 32.45144723 34.87828997 35.36464406 35 41 C33.45123978 44.66811631 31.53784843 47.13280222 28 49 C22.83191829 49.56379073 20.20408727 48.93579604 16 46 C13.63987627 43.90326221 11.42171544 41.67851689 9.203125 39.43359375 C8.56888611 38.79889664 7.93464722 38.16419952 7.28118896 37.51026917 C5.94761409 36.17368371 4.61645989 34.83467916 3.28759766 33.4934082 C1.24826738 31.43575181 -0.79902182 29.38627971 -2.84765625 27.33789062 C-4.14370331 26.03693051 -5.43929243 24.735514 -6.734375 23.43359375 C-7.65461456 22.51168495 -7.65461456 22.51168495 -8.59344482 21.57115173 C-12.28930323 17.83351527 -14.14496044 15.93413359 -14.3125 10.6875 C-14.28413514 7.16458401 -14.06650675 6.10641081 -12.125 3 C-8.4895957 -0.42155698 -4.85196147 -1.00676431 0 0 Z " fill="#000000" transform="translate(392,359)"/>
<path d="M0 0 C2.8100346 1.79363911 4.50940468 3.01880935 6 6 C6.68536555 9.75393404 6.98363959 13.46067618 4.86816406 16.77124023 C4.33932617 17.34044189 3.81048828 17.90964355 3.265625 18.49609375 C2.63011719 19.18316406 1.99460938 19.87023437 1.33984375 20.578125 C0.56769531 21.37734375 -0.20445313 22.1765625 -1 23 C-1.45648926 23.47284424 -1.91297852 23.94568848 -2.38330078 24.43286133 C-5.57482312 27.72755563 -8.80071055 30.98648217 -12.04443359 34.22973633 C-13.76559369 35.95311378 -15.47855618 37.68438324 -17.19140625 39.41601562 C-18.28857394 40.51611248 -19.38621297 41.61573949 -20.484375 42.71484375 C-20.99377625 43.23143051 -21.50317749 43.74801727 -22.02801514 44.28025818 C-25.42090783 47.65129885 -27.51366799 48.831736 -32.3125 49.375 C-37.12514994 48.88557797 -38.83041368 47.62238437 -42 44 C-42.98247222 41.27761887 -43.39714989 38.87253619 -43 36 C-40.58834106 31.17022232 -37.00686547 27.73345023 -33.21484375 23.984375 C-32.55795059 23.32794006 -31.90105743 22.67150513 -31.22425842 21.99517822 C-29.84059435 20.6145254 -28.45451048 19.23629389 -27.06616211 17.86035156 C-24.93608007 15.74859229 -22.81417512 13.62887363 -20.69335938 11.5078125 C-19.34682633 10.16619261 -17.99983689 8.82503059 -16.65234375 7.484375 C-16.01586411 6.84900818 -15.37938446 6.21364136 -14.72361755 5.559021 C-14.13282913 4.97461243 -13.54204071 4.39020386 -12.93334961 3.78808594 C-12.41389267 3.2724408 -11.89443573 2.75679565 -11.35923767 2.2255249 C-8.08713404 -0.72469092 -4.17278046 -0.59953742 0 0 Z " fill="#000000" transform="translate(128,359)"/>
<path d="M0 0 C1.0686731 -0.00241196 2.13734619 -0.00482391 3.23840332 -0.00730896 C5.49442257 -0.00633089 7.75046594 0.00705289 10.00634766 0.03198242 C13.45688518 0.06628829 16.90486113 0.05263832 20.35546875 0.03320312 C22.54949005 0.04010174 24.74350476 0.04977427 26.9375 0.0625 C28.48298523 0.0550602 28.48298523 0.0550602 30.05969238 0.04747009 C34.53669375 0.12097889 37.21437809 0.16802553 41.09570312 2.53930664 C44.25507544 6.0639505 44.36477314 8.76551159 44.3203125 13.3671875 C43.96875 15.62890625 43.96875 15.62890625 41.71875 18.62890625 C38.02612478 21.31445186 35.15470271 21.74841651 30.66259766 21.79003906 C29.8213736 21.79964661 28.98014954 21.80925415 28.11343384 21.81915283 C26.76177628 21.82552765 26.76177628 21.82552765 25.3828125 21.83203125 C23.98100235 21.84058136 23.98100235 21.84058136 22.5508728 21.8493042 C20.57559334 21.85874021 18.60029823 21.86528262 16.625 21.86914062 C13.61169864 21.87884843 10.59907895 21.90988597 7.5859375 21.94140625 C5.66406654 21.94793662 3.74219071 21.95318696 1.8203125 21.95703125 C0.92325592 21.96937805 0.02619934 21.98172485 -0.89804077 21.9944458 C-6.02057976 21.97630689 -9.62123554 21.53568249 -14.03125 18.62890625 C-16.43540469 15.21655766 -17.03125 13.24700934 -17.03125 9.06640625 C-14.36642591 -0.09392654 -8.29300761 -0.10671448 0 0 Z " fill="#000000" transform="translate(449.03125,226.37109375)"/>
<path d="M0 0 C0.96472733 -0.01606293 1.92945465 -0.03212585 2.92341614 -0.04867554 C7.33744642 -0.09309404 11.75132589 -0.13418891 16.16552734 -0.15722656 C18.49440501 -0.17379065 20.82323174 -0.20108633 23.15185547 -0.23925781 C26.50734872 -0.29398893 29.86164995 -0.31589538 33.2175293 -0.33056641 C34.77713127 -0.36457047 34.77713127 -0.36457047 36.36824036 -0.39926147 C43.58227233 -0.37815637 43.58227233 -0.37815637 47.48779297 2.51074219 C49.84841418 5.90299655 50.35424805 8.0646121 50.35424805 12.19287109 C49.12779781 15.94436593 48.15303947 17.66914217 44.84228516 19.83984375 C40.31206418 21.59713952 36.42354479 21.62425237 31.6081543 21.59130859 C30.67881577 21.59417877 29.74947723 21.59704895 28.79197693 21.6000061 C26.83282866 21.60204124 24.87365981 21.59654999 22.91455078 21.58398438 C19.92979052 21.5679412 16.94638801 21.58384251 13.96166992 21.60302734 C12.05216175 21.60104446 10.14265441 21.59719985 8.2331543 21.59130859 C6.90472252 21.60041763 6.90472252 21.60041763 5.54945374 21.60971069 C0.07768992 21.54818419 -3.82632059 20.85707497 -8.64575195 18.19287109 C-11.32480925 14.17428515 -11.34185889 10.91645388 -10.64575195 6.19287109 C-7.6203822 1.35227948 -5.54864592 0.08385598 0 0 Z " fill="#000000" transform="translate(29.645751953125,226.80712890625)"/>
<path d="M0 0 C0.825 -0.01289063 1.65 -0.02578125 2.5 -0.0390625 C6.31710945 0.9748572 7.61389712 2.4622536 10 5.625 C10.75143192 9.37170277 10.70072205 13.06386596 10.6640625 16.875 C10.66884613 17.96586914 10.67362976 19.05673828 10.67855835 20.18066406 C10.68195613 22.48373865 10.67276243 24.78686155 10.65185547 27.08984375 C10.6250906 30.61307417 10.65161001 34.13311856 10.68359375 37.65625 C10.68028963 39.89584036 10.67388337 42.13542874 10.6640625 44.375 C10.67418365 45.42719727 10.68430481 46.47939453 10.69473267 47.56347656 C10.57794248 54.85894523 10.57794248 54.85894523 7.61474609 58.78662109 C4.78408087 60.77680869 3.42376037 61.30349626 0 61.25 C-0.825 61.26289062 -1.65 61.27578125 -2.5 61.2890625 C-6.31710945 60.2751428 -7.61389712 58.7877464 -10 55.625 C-10.75143192 51.87829723 -10.70072205 48.18613404 -10.6640625 44.375 C-10.66884613 43.28413086 -10.67362976 42.19326172 -10.67855835 41.06933594 C-10.68195613 38.76626135 -10.67276243 36.46313845 -10.65185547 34.16015625 C-10.6250906 30.63692583 -10.65161001 27.11688144 -10.68359375 23.59375 C-10.68028963 21.35415964 -10.67388337 19.11457126 -10.6640625 16.875 C-10.67418365 15.82280273 -10.68430481 14.77060547 -10.69473267 13.68652344 C-10.57794248 6.39105477 -10.57794248 6.39105477 -7.61474609 2.46337891 C-4.78408087 0.47319131 -3.42376037 -0.05349626 0 0 Z " fill="#000000" transform="translate(256,-0.625)"/>
<path d="M0 0 C3.125 1.875 3.125 1.875 5 5 C5.98876625 10.02622846 5.7769173 13.70513784 3.125 18.125 C-1.29486216 20.7769173 -4.97377154 20.98876625 -10 20 C-13.125 18.125 -13.125 18.125 -15 15 C-15.98876625 9.97377154 -15.7769173 6.29486216 -13.125 1.875 C-8.70513784 -0.7769173 -5.02622846 -0.98876625 0 0 Z " fill="#000000" transform="translate(261,414)"/>
</svg>
